<svg width="121" height="121" fill="none" xmlns="http://www.w3.org/2000/svg"><path d="M117.425 51.185c-1.204-.401-2.609-.602-4.215-.602H36.131c-2.007 0-3.613.402-4.817 1.205l-19.27 5.42c-2.008.802-4.015 2.207-6.022 4.214-2.007 2.41-3.01 4.416-3.01 6.022" stroke="#000" stroke-width="1.204" stroke-linecap="round"/><path d="M117.425 51.185c-1.204-.401-2.609-.602-4.215-.602H36.131c-2.007 0-3.613.402-4.817 1.205l-19.27 5.42c-2.008.802-4.015 2.207-6.022 4.214-2.007 2.41-3.01 4.416-3.01 6.022" stroke="#fff" stroke-width="1.204" stroke-linecap="round"/><path d="M115.619 49.379c-.803-.803-2.008-1.205-3.613-1.205h-2.409c-.803 0-1.205.803-1.205 2.41v21.678c0 1.605.402 2.408 1.205 2.408h2.409c1.605 0 2.81-.401 3.613-1.204V49.379z" fill="#fff"/><path d="M114.414 50.583h-4.817v21.678h4.817V50.584z" fill="#fff"/><path d="M101.166 73.466c-3.99 0-7.226-5.392-7.226-12.044 0-6.651 3.236-12.043 7.226-12.043 3.991 0 7.227 5.392 7.227 12.043 0 6.652-3.236 12.044-7.227 12.044z" fill="#fff" stroke="#000" stroke-opacity=".1" stroke-width=".181"/><path d="M103.575 62.025c-1.33 0-2.409-2.157-2.409-4.818 0-2.66 1.079-4.817 2.409-4.817 1.33 0 2.409 2.157 2.409 4.817s-1.079 4.818-2.409 4.818z" fill="#fff"/><path d="M108.694 49.379h1.204c.166 0 .301.135.301.3v1.807a.301.301 0 01-.301.302h-1.204a.3.3 0 01-.301-.302V49.68a.3.3 0 01.301-.301z" fill="#666"/></svg>