<svg width="121" height="121" fill="none" xmlns="http://www.w3.org/2000/svg"><path d="M3.01 51.185c1.205-.401 2.61-.602 4.216-.602h77.079c2.007 0 3.613.402 4.817 1.205l19.27 5.42c2.008.802 4.015 2.207 6.022 4.214 2.007 2.41 3.011 4.416 3.011 6.022" stroke="#000" stroke-width="1.204" stroke-linecap="round"/><path d="M3.01 51.185c1.205-.401 2.61-.602 4.216-.602h77.079c2.007 0 3.613.402 4.817 1.205l19.27 5.42c2.008.802 4.015 2.207 6.022 4.214 2.007 2.41 3.011 4.416 3.011 6.022" stroke="#fff" stroke-width="1.204" stroke-linecap="round"/><path d="M4.817 49.379c.803-.803 2.008-1.205 3.613-1.205h2.41c.802 0 1.204.803 1.204 2.41v21.678c0 1.605-.402 2.408-1.205 2.408H8.43c-1.605 0-2.81-.401-3.613-1.204V49.379z" fill="#fff"/><path d="M6.022 50.583h4.817v21.678H6.022V50.584z" fill="#fff"/><path d="M19.27 73.466c3.99 0 7.226-5.392 7.226-12.044 0-6.651-3.235-12.043-7.226-12.043s-7.226 5.392-7.226 12.043c0 6.652 3.235 12.044 7.226 12.044z" fill="#fff" stroke="#000" stroke-opacity=".1" stroke-width=".181"/><path d="M16.86 62.025c1.331 0 2.41-2.157 2.41-4.818 0-2.66-1.079-4.817-2.41-4.817-1.33 0-2.408 2.157-2.408 4.817s1.079 4.818 2.409 4.818z" fill="#fff"/><path d="M11.742 49.379h-1.204a.301.301 0 00-.301.3v1.807c0 .167.135.302.3.302h1.205a.301.301 0 00.301-.302V49.68a.301.301 0 00-.3-.301z" fill="#666"/><path d="M11.14 51.185a.602.602 0 100-1.204.602.602 0 000 1.204z" fill="#888"/></svg>